<?xml version="1.0" encoding="UTF-8"?>
<svg id="Calque_2" data-name="Calque 2" xmlns="http://www.w3.org/2000/svg" viewBox="0 0 718.46 139.72">
  <defs>
    <style>
      .cls-1 {
        fill: #fff;
      }
    </style>
  </defs>
  <g id="Calque_1-2" data-name="Calque 1">
    <g>
      <rect class="cls-1" width="24.87" height="139.72"/>
      <polygon class="cls-1" points="159.68 123.63 153.34 123.63 114.77 0 64.87 0 64.87 139.72 89.82 139.72 89.82 15.86 96.16 15.86 134.73 139.72 184.89 139.72 184.89 0 159.68 0 159.68 123.63"/>
      <rect class="cls-1" x="224.61" width="24.88" height="139.72"/>
      <polygon class="cls-1" points="375.62 123.63 367.87 123.63 337.39 0 289.41 0 289.41 139.72 314.36 139.72 314.36 16.98 319.35 16.98 349.29 139.72 394.2 139.72 424.14 16.98 429.13 16.98 429.13 139.72 454.08 139.72 454.08 0 406.1 0 375.62 123.63"/>
      <rect class="cls-1" x="494" width="24.88" height="139.72"/>
      <polygon class="cls-1" points="543.9 21.9 593.74 21.9 593.74 139.72 618.79 139.72 618.79 21.9 668.64 21.9 668.64 0 543.9 0 543.9 21.9"/>
      <rect class="cls-1" x="693.59" width="24.87" height="139.72"/>
    </g>
  </g>
</svg>